<svg height="60" viewBox="0 0 602 90" xmlns="http://www.w3.org/2000/svg">
  <g fill-rule="evenodd">
    <path d="M543.32 88h18.48V55c0-7.2 3.72-12.48 10.92-12.48 7.32 0 11.04 5.04 11.04 12.48v33h18.36V52.72c0-15.12-7.8-25.68-22.68-25.68-7.32 0-13.32 2.64-17.64 8.64V4h-18.48Zm-34.68 1.44c14.88 0 25.68-8.28 29.16-22.8H518c-1.68 4.56-4.92 6.96-9.72 6.96-8.04 0-11.16-7.32-11.16-15.36s3.12-15.36 11.16-15.36c4.8 0 8.04 2.4 9.72 6.96h19.8c-3.72-15.84-15.12-22.8-29.16-22.8-18.72 0-30.48 13.08-30.48 31.2 0 18.96 12.48 31.2 30.48 31.2Zm-64.32 0c15.24 0 26.04-9.6 28.8-21h-19.8c-1.8 3.96-5.04 5.88-9.6 5.88-5.16 0-10.92-3-11.52-11.64h42c.24-1.92.36-3.72.36-5.4 0-18.6-12.6-30.24-30.24-30.24-17.04 0-30.6 10.8-30.6 31.2 0 20.52 14.04 31.2 30.6 31.2ZM432.2 52.36c1.08-6.36 5.52-10.44 11.88-10.44 6.48 0 11.4 3.96 11.4 10.44ZM401.6 88h9.36V72.28h-6.6c-3.96 0-5.52-1.08-5.52-5.04V43.72h12.12V28.48h-12.12V13.72h-18.48v14.76h-6.24v15.24h6.24V67c0 14.28 7.2 21 21.24 21Z"/>
    <path fill="#168ef9" d="M360.08 89.44c6.36 0 11.52-5.16 11.52-11.4s-5.16-11.4-11.52-11.4c-6.36 0-11.28 5.16-11.28 11.4s4.92 11.4 11.28 11.4Z"/>
    <path d="M305.48 89.44c7.8 0 14.64-3 18.72-9.6V88h18.6V4h-18.6v32.28c-3.96-6-11.28-9.24-18.72-9.24-16.68 0-26.76 14.28-26.76 31.08 0 16.8 9.96 31.32 26.76 31.32Zm5.4-16.2c-8.16 0-13.2-6.72-13.2-15.12 0-10.8 7.2-14.88 13.2-14.88 7.8 0 13.32 6.24 13.32 15 0 9.24-5.88 15-13.32 15ZM263.72 23.2c6.48 0 11.4-5.16 11.4-11.4S270.2.4 263.72.4c-6.24 0-11.4 5.16-11.4 11.4s5.16 11.4 11.4 11.4ZM254.48 88h18.48V28.48h-18.48Zm-26.28 0h18.48V4H228.2Zm-36.6 1.44c18.24 0 31.92-12.24 31.92-31.2 0-18.12-12.6-31.2-31.68-31.2-18.12 0-31.68 12.36-31.68 31.2 0 19.92 14.04 31.2 31.44 31.2Zm.12-16.08c-7.8 0-12.96-6.24-12.96-15.12 0-9.24 5.52-15 12.96-15 7.08 0 12.96 5.04 12.96 14.88 0 9-5.16 15.24-12.96 15.24Zm-60 16.08c13.2 0 24.6-6.6 24.6-18.48-.36-13.08-10.44-16.08-21.84-18.96-4.32-1.08-11.4-2.04-11.4-6.48 0-3.48 3.24-4.68 6.72-4.68 4.8 0 8.16 2.04 9 6.84h17.16c-1.56-13.56-11.52-20.64-25.56-20.64-13.44 0-24.72 6.6-24.72 18.84 0 12.72 10.32 15.6 21.6 18.36 4.08.96 11.52 2.4 11.52 6.6 0 3.48-3.48 4.92-7.32 4.92-4.68 0-8.76-2.52-9.36-7.08h-18.36c.84 13.8 14.88 20.76 27.96 20.76Zm-61.8 0c15.24 0 26.04-9.6 28.8-21h-19.8c-1.8 3.96-5.04 5.88-9.6 5.88-5.16 0-10.92-3-11.52-11.64h42c.24-1.92.36-3.72.36-5.4 0-18.6-12.6-30.24-30.24-30.24-17.04 0-30.6 10.8-30.6 31.2 0 20.52 14.04 31.2 30.6 31.2ZM57.8 52.36c1.08-6.36 5.52-10.44 11.88-10.44 6.48 0 11.4 3.96 11.4 10.44ZM-.52 88h18.48V60.04c0-9.6 4.44-13.44 13.8-13.44h5.16V27.04c-8.4 0-14.88 4.56-18.96 10.68v-9.24H-.52Z"/>
  </g>
</svg>
